<svg width="18" height="18" viewBox="0 0 18 18" fill="none" xmlns="http://www.w3.org/2000/svg">
<path fill-rule="evenodd" clip-rule="evenodd" d="M4.45066 3.24889C4.1188 2.91704 3.58075 2.91704 3.24889 3.24889C2.91704 3.58075 2.91704 4.1188 3.24889 4.45066L7.45509 8.65686L3.2489 12.863C2.91705 13.1949 2.91704 13.733 3.2489 14.0648C3.58076 14.3967 4.11881 14.3967 4.45067 14.0648L8.65686 9.85863L12.863 14.0648C13.1949 14.3967 13.733 14.3967 14.0648 14.0648C14.3967 13.733 14.3967 13.1949 14.0648 12.863L9.85863 8.65686L14.0648 4.45066C14.3967 4.1188 14.3967 3.58075 14.0648 3.24889C13.733 2.91704 13.1949 2.91704 12.8631 3.24889L8.65686 7.45509L4.45066 3.24889Z" fill="#505065"/>
</svg>
